<mxfile host="app.diagrams.net" modified="2021-03-04T18:57:24.635Z" agent="5.0 (X11; Linux x86_64) AppleWebKit/537.36 (KHTML, like Gecko) Chrome/89.0.4389.72 Safari/537.36" etag="KIln8WdwJ0Q7FyGOw4bs" version="14.4.4" type="github">
  <diagram id="C5RBs43oDa-KdzZeNtuy" name="Page-1">
    <mxGraphModel dx="868" dy="1599" grid="1" gridSize="10" guides="1" tooltips="1" connect="1" arrows="1" fold="1" page="1" pageScale="1" pageWidth="827" pageHeight="1169" math="0" shadow="0">
      <root>
        <mxCell id="WIyWlLk6GJQsqaUBKTNV-0" />
        <mxCell id="WIyWlLk6GJQsqaUBKTNV-1" parent="WIyWlLk6GJQsqaUBKTNV-0" />
        <mxCell id="4LdNHky1lae5kBPxwlqD-0" value="&lt;p class=&quot;western&quot; align=&quot;left&quot; style=&quot;margin-bottom: 0cm ; direction: ltr ; line-height: 16px ; text-align: left ; background: transparent ; font-family: &amp;#34;liberation serif&amp;#34; , serif ; font-size: 12pt&quot;&gt;S = [&lt;/p&gt;&lt;p class=&quot;western&quot; align=&quot;left&quot; style=&quot;margin-bottom: 0cm ; direction: ltr ; line-height: 16px ; text-align: left ; background: transparent ; font-family: &amp;#34;liberation serif&amp;#34; , serif ; font-size: 12pt&quot;&gt;[17.76, -12.7, -16.8, 14.16],&lt;/p&gt;&lt;p class=&quot;western&quot; align=&quot;left&quot; style=&quot;margin-bottom: 0cm ; direction: ltr ; line-height: 16px ; text-align: left ; background: transparent ; font-family: &amp;#34;liberation serif&amp;#34; , serif ; font-size: 12pt&quot;&gt;[36.325, 9.567, 15.796, -19.301],&lt;/p&gt;&lt;p class=&quot;western&quot; align=&quot;left&quot; style=&quot;margin-bottom: 0cm ; direction: ltr ; line-height: 16px ; text-align: left ; background: transparent ; font-family: &amp;#34;liberation serif&amp;#34; , serif ; font-size: 12pt&quot;&gt;[0, 5.3, 6.8, -17.3]]&lt;br&gt;S1 = 0&lt;/p&gt;&lt;p class=&quot;western&quot; align=&quot;left&quot; style=&quot;margin-bottom: 0cm ; direction: ltr ; line-height: 16px ; text-align: left ; background: transparent ; font-family: &amp;#34;liberation serif&amp;#34; , serif ; font-size: 12pt&quot;&gt;S2 = 0 # квадрат&lt;/p&gt;&lt;p class=&quot;western&quot; align=&quot;left&quot; style=&quot;margin-bottom: 0cm ; direction: ltr ; line-height: 16px ; text-align: left ; background: transparent ; font-family: &amp;#34;liberation serif&amp;#34; , serif ; font-size: 12pt&quot;&gt;&lt;br&gt;def search(mod):&lt;/p&gt;&lt;p class=&quot;western&quot; align=&quot;left&quot; style=&quot;margin-bottom: 0cm ; direction: ltr ; line-height: 16px ; text-align: left ; background: transparent ; font-family: &amp;#34;liberation serif&amp;#34; , serif ; font-size: 12pt&quot;&gt;tmp = 0&lt;/p&gt;&lt;p class=&quot;western&quot; align=&quot;left&quot; style=&quot;margin-bottom: 0cm ; direction: ltr ; line-height: 16px ; text-align: left ; background: transparent ; font-family: &amp;#34;liberation serif&amp;#34; , serif ; font-size: 12pt&quot;&gt;mod %=2&lt;/p&gt;&lt;p class=&quot;western&quot; align=&quot;left&quot; style=&quot;margin-bottom: 0cm ; direction: ltr ; line-height: 16px ; text-align: left ; background: transparent ; font-family: &amp;#34;liberation serif&amp;#34; , serif ; font-size: 12pt&quot;&gt;i = 0 квадрат&lt;/p&gt;&lt;p class=&quot;western&quot; align=&quot;left&quot; style=&quot;margin-bottom: 0cm ; direction: ltr ; line-height: 16px ; text-align: left ; background: transparent ; font-family: &amp;#34;liberation serif&amp;#34; , serif ; font-size: 12pt&quot;&gt;while (i &amp;lt; len(S)): трикут&lt;/p&gt;&lt;p class=&quot;western&quot; align=&quot;left&quot; style=&quot;margin-bottom: 0cm ; direction: ltr ; line-height: 16px ; text-align: left ; background: transparent ; font-family: &amp;#34;liberation serif&amp;#34; , serif ; font-size: 12pt&quot;&gt;j = 0&lt;/p&gt;&lt;p class=&quot;western&quot; align=&quot;left&quot; style=&quot;margin-bottom: 0cm ; direction: ltr ; line-height: 16px ; text-align: left ; background: transparent ; font-family: &amp;#34;liberation serif&amp;#34; , serif ; font-size: 12pt&quot;&gt;while(j &amp;lt; len(S[i])): трикут&lt;/p&gt;&lt;p class=&quot;western&quot; align=&quot;left&quot; style=&quot;margin-bottom: 0cm ; direction: ltr ; line-height: 16px ; text-align: left ; background: transparent ; font-family: &amp;#34;liberation serif&amp;#34; , serif ; font-size: 12pt&quot;&gt;tmp += S[i+mod][j+mod]&lt;/p&gt;&lt;p class=&quot;western&quot; align=&quot;left&quot; style=&quot;margin-bottom: 0cm ; direction: ltr ; line-height: 16px ; text-align: left ; background: transparent ; font-family: &amp;#34;liberation serif&amp;#34; , serif ; font-size: 12pt&quot;&gt;j += 2 квадрат&lt;/p&gt;&lt;p class=&quot;western&quot; align=&quot;left&quot; style=&quot;margin-bottom: 0cm ; direction: ltr ; line-height: 16px ; text-align: left ; background: transparent ; font-family: &amp;#34;liberation serif&amp;#34; , serif ; font-size: 12pt&quot;&gt;i += 2 кварат&lt;/p&gt;&lt;p class=&quot;western&quot; align=&quot;left&quot; style=&quot;margin-bottom: 0cm ; direction: ltr ; line-height: 16px ; text-align: left ; background: transparent ; font-family: &amp;#34;liberation serif&amp;#34; , serif ; font-size: 12pt&quot;&gt;S2 = search(2) # фун&lt;/p&gt;&lt;p class=&quot;western&quot; align=&quot;left&quot; style=&quot;margin-bottom: 0cm ; direction: ltr ; line-height: 16px ; text-align: left ; background: transparent ; font-family: &amp;#34;liberation serif&amp;#34; , serif ; font-size: 12pt&quot;&gt;S1 = searh(1) # функция&lt;/p&gt;&lt;p class=&quot;western&quot; align=&quot;left&quot; style=&quot;margin-bottom: 0cm ; direction: ltr ; line-height: 16px ; text-align: left ; background: transparent ; font-family: &amp;#34;liberation serif&amp;#34; , serif ; font-size: 12pt&quot;&gt;print(S1, S2) # вывод&lt;/p&gt;" style="text;html=1;align=center;verticalAlign=middle;resizable=0;points=[];autosize=1;" vertex="1" parent="WIyWlLk6GJQsqaUBKTNV-1">
          <mxGeometry x="425" y="-245" width="230" height="610" as="geometry" />
        </mxCell>
      </root>
    </mxGraphModel>
  </diagram>
</mxfile>
